<?xml version="1.0" encoding="UTF-8"?>
<svg version="1.1" xmlns="http://www.w3.org/2000/svg" width="1376" height="768">
<path d="M0 0 C454.08 0 908.16 0 1376 0 C1376 253.44 1376 506.88 1376 768 C921.92 768 467.84 768 0 768 C0 514.56 0 261.12 0 0 Z " fill="#190C29" transform="translate(0,0)"/>
<path d="M0 0 C0.66 0.99 1.32 1.98 2 3 C4.05925139 3.72382467 4.05925139 3.72382467 6 4 C6 4.66 6 5.32 6 6 C5.34 6 4.68 6 4 6 C4 6.99 4 7.98 4 9 C4.66 9 5.32 9 6 9 C6.433125 9.61875 6.86625 10.2375 7.3125 10.875 C9.31219438 13.39313367 10.98404073 14.02185105 14 15 C12.87656717 18.3702985 11.82104006 19.32859216 9.1875 21.625 C8.50042969 22.23601563 7.81335938 22.84703125 7.10546875 23.4765625 C5.00479562 24.99653007 3.53228128 25.57890154 1 26 C1 27.65 1 29.3 1 31 C0.34 31 -0.32 31 -1 31 C-1 29.02 -1 27.04 -1 25 C-2.32 25 -3.64 25 -5 25 C-5 24.34 -5 23.68 -5 23 C-7.475 22.01 -7.475 22.01 -10 21 C-10 20.01 -10 19.02 -10 18 C-11.98 17.67 -13.96 17.34 -16 17 C-15.67 16.34 -15.34 15.68 -15 15 C-14.195625 14.87625 -13.39125 14.7525 -12.5625 14.625 C-9.84016601 14.27432836 -9.84016601 14.27432836 -8.6875 11.9375 C-8.460625 11.298125 -8.23375 10.65875 -8 10 C-7.34 10 -6.68 10 -6 10 C-6 9.34 -6 8.68 -6 8 C-5.01 7.67 -4.02 7.34 -3 7 C-1.28432339 3.49705129 -1.28432339 3.49705129 0 0 Z " fill="#3C174D" transform="translate(847,490)"/>
<path d="M0 0 C0.66 0.66 1.32 1.32 2 2 C1.2575 2.825 0.515 3.65 -0.25 4.5 C-7.78929125 13.66541289 -12.46212727 27.52717875 -14.63671875 39.125 C-14.99313432 40.96456426 -15.52696582 42.76688538 -16.0625 44.5625 C-18.25890289 52.61597728 -18.21631993 60.72286872 -18.24023438 69.02416992 C-18.24986256 71.03381271 -18.28102598 73.043315 -18.3125 75.05273438 C-18.36233829 87.75526958 -16.3341229 99.22599236 -11.8125 111.125 C-10.96812641 114.11278346 -11.13388621 115.13752465 -12 118 C-19.42618271 97.81892333 -19.42618271 97.81892333 -19 91 C-19.66 90.67 -20.32 90.34 -21 90 C-21.06058594 88.75863281 -21.12117188 87.51726562 -21.18359375 86.23828125 C-21.26803623 84.59634423 -21.35268236 82.95441768 -21.4375 81.3125 C-21.47681641 80.49587891 -21.51613281 79.67925781 -21.55664062 78.83789062 C-21.73039925 75.53647671 -21.91386194 72.40817054 -22.59765625 69.16796875 C-23.05491536 66.70409683 -22.67949202 65.38947193 -22 63 C-21.82623681 60.93966508 -21.68333829 58.87661524 -21.5625 56.8125 C-21.2272227 52.06007732 -20.62075668 47.61259112 -19.46875 42.99609375 C-18.8979274 40.71494489 -18.8979274 40.71494489 -18.5 37.1875 C-18.05123458 34.32662045 -17.47415905 32.45693175 -16 30 C-15.34 30 -14.68 30 -14 30 C-13.89042969 29.28714844 -13.78085938 28.57429687 -13.66796875 27.83984375 C-12.72174813 22.12405578 -11.54615476 17.20804382 -9 12 C-8.34 12 -7.68 12 -7 12 C-7 10.68 -7 9.36 -7 8 C-6.34 8 -5.68 8 -5 8 C-4.896875 7.360625 -4.79375 6.72125 -4.6875 6.0625 C-4.460625 5.381875 -4.23375 4.70125 -4 4 C-3.01 3.67 -2.02 3.34 -1 3 C-0.67 2.01 -0.34 1.02 0 0 Z " fill="#66348A" transform="translate(1050,534)"/>
<path d="M0 0 C1.76462683 3.08809695 2 4.23312136 2 8 C2.66 8 3.32 8 4 8 C4 8.66 4 9.32 4 10 C4.639375 10.28875 5.27875 10.5775 5.9375 10.875 C8 12 8 12 9 14 C11.52733235 14.65555119 11.52733235 14.65555119 14 15 C14 15.66 14 16.32 14 17 C13.40832031 17.23074219 12.81664062 17.46148437 12.20703125 17.69921875 C7.08734113 19.81223931 3.62020631 21.79588945 0 26 C-1.6627026 23.32521756 -2.99983813 21.0004856 -4 18 C-4.63808594 17.95101563 -5.27617187 17.90203125 -5.93359375 17.8515625 C-6.75988281 17.77679688 -7.58617187 17.70203125 -8.4375 17.625 C-9.26121094 17.55539062 -10.08492188 17.48578125 -10.93359375 17.4140625 C-11.61550781 17.27742188 -12.29742187 17.14078125 -13 17 C-13.33 16.34 -13.66 15.68 -14 15 C-13.43410156 14.89042969 -12.86820312 14.78085937 -12.28515625 14.66796875 C-11.55167969 14.50941406 -10.81820313 14.35085938 -10.0625 14.1875 C-9.33160156 14.03667969 -8.60070312 13.88585937 -7.84765625 13.73046875 C-7.23792969 13.48941406 -6.62820313 13.24835938 -6 13 C-5.67 12.01 -5.34 11.02 -5 10 C-4.01 9.6596875 -4.01 9.6596875 -3 9.3125 C-0.82484567 8.20686747 -0.82484567 8.20686747 -0.515625 6.09765625 C-0.27357441 4.07226234 -0.13132736 2.03557415 0 0 Z " fill="#733C9B" transform="translate(414,462)"/>
<path d="M0 0 C0.33 0 0.66 0 1 0 C1.66 2.97 2.32 5.94 3 9 C3.66 9 4.32 9 5 9 C5.33 9.66 5.66 10.32 6 11 C9.02934491 11.65772428 9.02934491 11.65772428 12 12 C10.64004663 15.1618916 9.22140627 16.85608546 6.5 18.9375 C3.54575023 21.35126332 2.00183473 23.215291 1 27 C0.67 27 0.34 27 0 27 C-0.061875 25.4221875 -0.061875 25.4221875 -0.125 23.8125 C-1.28543612 18.75631404 -2.78643904 17.86522145 -7 15 C-7.99 14.67 -8.98 14.34 -10 14 C-10 13.34 -10 12.68 -10 12 C-8.68 12 -7.36 12 -6 12 C-6 11.34 -6 10.68 -6 10 C-5.195625 9.236875 -4.39125 8.47375 -3.5625 7.6875 C-0.92701463 4.92345437 -0.31813933 3.71162552 0 0 Z " fill="#6C48A2" transform="translate(1158,369)"/>
<path d="M0 0 C0.33 0 0.66 0 1 0 C1.33 2.97 1.66 5.94 2 9 C2.763125 9.268125 3.52625 9.53625 4.3125 9.8125 C6.93032534 10.96921352 8.10703497 11.93494724 10 14 C10.99 14.66 11.98 15.32 13 16 C11.02 16.33 9.04 16.66 7 17 C7 17.66 7 18.32 7 19 C6.34 19 5.68 19 5 19 C4.67 19.99 4.34 20.98 4 22 C3.34 22 2.68 22 2 22 C2 22.99 2 23.98 2 25 C1.34 25 0.68 25 0 25 C-0.33 23.35 -0.66 21.7 -1 20 C-1.99 20 -2.98 20 -4 20 C-4.33 19.34 -4.66 18.68 -5 18 C-6.64363134 17.27840576 -8.31050386 16.60648579 -10 16 C-7 14 -7 14 -4 13 C-3.67 12.34 -3.34 11.68 -3 11 C-2.34 11 -1.68 11 -1 11 C-1.01160156 10.28972656 -1.02320313 9.57945312 -1.03515625 8.84765625 C-1.04869141 7.46900391 -1.04869141 7.46900391 -1.0625 6.0625 C-1.07410156 5.14597656 -1.08570313 4.22945313 -1.09765625 3.28515625 C-1 1 -1 1 0 0 Z " fill="#3E2363" transform="translate(370,307)"/>
<path d="M0 0 C2 3 2 3 2 7 C3.32 7 4.64 7 6 7 C6 8.32 6 9.64 6 11 C6.99 11.33 7.98 11.66 9 12 C7.8803014 13.00593243 6.7540588 14.0045849 5.625 15 C4.68527344 15.8353125 4.68527344 15.8353125 3.7265625 16.6875 C2 18 2 18 0 18 C0 17.34 0 16.68 0 16 C-1.32 15.34 -2.64 14.68 -4 14 C-4 13.34 -4 12.68 -4 12 C-4.99 12 -5.98 12 -7 12 C-7 11.34 -7 10.68 -7 10 C-6.34 10 -5.68 10 -5 10 C-4.67 8.68 -4.34 7.36 -4 6 C-2.68 6 -1.36 6 0 6 C0 4.02 0 2.04 0 0 Z " fill="#7D54A4" transform="translate(846,495)"/>
<path d="M0 0 C0 3.59760476 -0.89512296 4.2215623 -3 7 C-3.12890625 7.62777344 -3.2578125 8.25554687 -3.390625 8.90234375 C-4.15835725 11.54511438 -5.34941948 12.71656626 -7.3125 14.625 C-7.90675781 15.21539062 -8.50101562 15.80578125 -9.11328125 16.4140625 C-12.59127221 19.33759113 -16.77946756 20.80595414 -20.9375 22.5625 C-22.46697266 23.21412109 -22.46697266 23.21412109 -24.02734375 23.87890625 C-26.70285775 24.88793715 -29.18542833 25.53867978 -32 26 C-29.6662305 23.3621563 -27.38604128 22.11726269 -24.1875 20.6875 C-19.44250268 18.41544289 -16.55736353 15.8241658 -13 12 C-12.34 12 -11.68 12 -11 12 C-11 11.34 -11 10.68 -11 10 C-10.0409375 9.566875 -10.0409375 9.566875 -9.0625 9.125 C-6.84793921 8.17176549 -6.84793921 8.17176549 -6 6 C-5.34 6 -4.68 6 -4 6 C-3.896875 5.38125 -3.79375 4.7625 -3.6875 4.125 C-3 2 -3 2 0 0 Z " fill="#53307D" transform="translate(355,221)"/>
<path d="M0 0 C0.33 0 0.66 0 1 0 C1 1.98 1 3.96 1 6 C2.32 6 3.64 6 5 6 C5.36923077 12.4 5.36923077 12.4 3.5 15.4375 C3.005 15.953125 2.51 16.46875 2 17 C0.35 16.67 -1.3 16.34 -3 16 C-3.33 15.01 -3.66 14.02 -4 13 C-5.65 13 -7.3 13 -9 13 C-8.01 12.67 -7.02 12.34 -6 12 C-5.67 9.69 -5.34 7.38 -5 5 C-3.35 5 -1.7 5 0 5 C0 3.35 0 1.7 0 0 Z " fill="#2E1A54" transform="translate(1285,88)"/>
<path d="M0 0 C3.26520744 0.80075325 6.50746067 1.67466185 9.75 2.5625 C11.22726562 2.96662109 11.22726562 2.96662109 12.734375 3.37890625 C13.85585938 3.68634766 13.85585938 3.68634766 15 4 C15 4.66 15 5.32 15 6 C25.909835 6.51007021 34.57106589 5.50919539 45 2 C46.32914495 1.65033932 47.66077263 1.30880243 49 1 C46.82575883 3.50037734 45.26954202 4.43628586 42 5 C42 5.66 42 6.32 42 7 C37.27382588 7.76262664 32.75795287 8.11892423 27.97265625 8.09765625 C26.68681641 8.09443359 25.40097656 8.09121094 24.07617188 8.08789062 C22.73828055 8.07953802 21.40038993 8.07107311 20.0625 8.0625 C18.69726726 8.05747659 17.33203274 8.05291517 15.96679688 8.04882812 C12.64448543 8.03708851 9.32226592 8.02066679 6 8 C6 7.01 6 6.02 6 5 C4.03852126 3.61061923 2.03833424 2.2739589 0 1 C0 0.67 0 0.34 0 0 Z " fill="#402562" transform="translate(761,37)"/>
<path d="M0 0 C2 3 2 3 1.79296875 5.0859375 C1.59316406 5.84132812 1.39335938 6.59671875 1.1875 7.375 C0.99542969 8.12523437 0.80335938 8.87546875 0.60546875 9.6484375 C0.40566406 10.42445313 0.20585938 11.20046875 0 12 C-2.2392437 22.27660675 -2.13637719 32.78217109 -2.0625 43.25 C-2.05798828 44.48363281 -2.05347656 45.71726563 -2.04882812 46.98828125 C-2.03718487 49.99224069 -2.02083376 52.99609266 -2 56 C-2.99 56 -3.98 56 -5 56 C-5.50855889 36.73344218 -4.74251359 18.79606553 0 0 Z " fill="#784BB2" transform="translate(979,140)"/>
<path d="M0 0 C1.32 0.33 2.64 0.66 4 1 C3.44747559 1.41685059 2.89495117 1.83370117 2.32568359 2.26318359 C-3.16948134 6.46468298 -8.34647971 10.87711133 -13.375 15.625 C-14.10452881 16.31142578 -14.83405762 16.99785156 -15.58569336 17.70507812 C-21.90245467 23.73708738 -27.57825393 30.16133973 -33 37 C-34.125 33.25 -34.125 33.25 -33 31 C-32.08541016 30.55914063 -32.08541016 30.55914063 -31.15234375 30.109375 C-28.65322679 28.8212639 -27.36413655 27.3969849 -25.5625 25.25 C-24.95664063 24.53714844 -24.35078125 23.82429687 -23.7265625 23.08984375 C-22.69270127 21.83845063 -21.66460453 20.58220969 -20.6484375 19.31640625 C-18.52351086 16.67738446 -16.38877888 14.4185088 -13.75 12.3125 C-10.78599021 10.22890739 -10.78599021 10.22890739 -10 7 C-9.34 7 -8.68 7 -8 7 C-8 6.34 -8 5.68 -8 5 C-5 3 -5 3 -1 3 C-0.67 2.01 -0.34 1.02 0 0 Z " fill="#AB72DE" transform="translate(1085,497)"/>
<path d="M0 0 C4.56357487 6.7905994 2.69910907 19.55416918 1.34765625 27.31640625 C-0.58666356 36.47903188 -4.11871636 45.00479404 -9 53 C-9.99 53.495 -9.99 53.495 -11 54 C-10.5182657 50.02569203 -9.03070166 47.31821548 -7.03808594 43.89379883 C-0.9963149 32.87168737 -0.49924826 21.76874028 -0.921875 9.51953125 C-1.03318639 6.18901309 -0.88613616 3.24245277 0 0 Z " fill="#8F60C7" transform="translate(367,167)"/>
<path d="M0 0 C0.66 0.33 1.32 0.66 2 1 C0.41856529 2.43958847 -1.16522779 3.87658645 -2.75 5.3125 C-3.63171875 6.11300781 -4.5134375 6.91351562 -5.421875 7.73828125 C-8 10 -8 10 -10.296875 11.63671875 C-12.26042493 12.90900579 -12.26042493 12.90900579 -12.5 15.5 C-13 18 -13 18 -14.9375 19.8125 C-17 21 -17 21 -19 21 C-21 18 -21 18 -20.625 15.3125 C-20.41875 14.549375 -20.2125 13.78625 -20 13 C-19.28972656 12.92523437 -18.57945312 12.85046875 -17.84765625 12.7734375 C-14.22446168 11.78935996 -12.27564573 10.06446323 -9.4375 7.625 C-6.34607543 4.99235828 -3.28146828 2.39354157 0 0 Z " fill="#2F1A59" transform="translate(513,511)"/>
<path d="M0 0 C0.66 0.66 1.32 1.32 2 2 C1.2575 2.825 0.515 3.65 -0.25 4.5 C-7.44348308 13.24501864 -11.99425261 26.32899891 -14.25 37.375 C-15 41 -15 41 -17 43 C-16.55291959 37.36678682 -15.67212664 32.57571268 -13.7578125 27.26953125 C-12.7464241 24.24057938 -12.12656303 21.17602957 -11.52734375 18.04296875 C-10.95689261 15.83299877 -10.08432457 14.00217607 -9 12 C-8.34 12 -7.68 12 -7 12 C-7 10.68 -7 9.36 -7 8 C-6.34 8 -5.68 8 -5 8 C-4.896875 7.360625 -4.79375 6.72125 -4.6875 6.0625 C-4.460625 5.381875 -4.23375 4.70125 -4 4 C-3.01 3.67 -2.02 3.34 -1 3 C-0.67 2.01 -0.34 1.02 0 0 Z " fill="#6C358F" transform="translate(1050,534)"/>
<path d="M0 0 C1.20101451 3.55193652 0.8293019 6.27599707 0.1875 9.9375 C0.01605469 10.95714844 -0.15539063 11.97679687 -0.33203125 13.02734375 C-1 16 -1 16 -2.01586914 18.21777344 C-3.25645589 21.72502389 -3.32519454 24.77063831 -3.4140625 28.48828125 C-3.43342865 29.19147995 -3.4527948 29.89467865 -3.4727478 30.6191864 C-3.53220183 32.85017019 -3.57879049 35.08120654 -3.625 37.3125 C-3.66321137 38.83140186 -3.70226492 40.35028278 -3.7421875 41.86914062 C-3.83787416 45.57923467 -3.92203072 49.28948651 -4 53 C-4.33 53 -4.66 53 -5 53 C-5.06058594 52.26394531 -5.12117188 51.52789063 -5.18359375 50.76953125 C-5.26738281 49.79371094 -5.35117188 48.81789063 -5.4375 47.8125 C-5.51871094 46.84957031 -5.59992188 45.88664063 -5.68359375 44.89453125 C-5.94035692 42.028935 -5.94035692 42.028935 -6.59765625 39.38671875 C-7.03399435 36.79834421 -6.70890261 35.49289593 -6 33 C-5.82623681 30.93966508 -5.68333829 28.87661524 -5.5625 26.8125 C-5.2272227 22.06007732 -4.62075668 17.61259112 -3.46875 12.99609375 C-2.8979274 10.71494489 -2.8979274 10.71494489 -2.5 7.1875 C-2.05123458 4.32662045 -1.47415905 2.45693175 0 0 Z " fill="#5D267E" transform="translate(1034,564)"/>
<path d="M0 0 C0.66 0.99 1.32 1.98 2 3 C4.05925139 3.72382467 4.05925139 3.72382467 6 4 C6 4.66 6 5.32 6 6 C5.34 6 4.68 6 4 6 C4 6.99 4 7.98 4 9 C4.66 9 5.32 9 6 9 C6.433125 9.61875 6.86625 10.2375 7.3125 10.875 C9.31219438 13.39313367 10.98404073 14.02185105 14 15 C14 15.66 14 16.32 14 17 C10.04 17.495 10.04 17.495 6 18 C5.67 16.02 5.34 14.04 5 12 C3.68 12 2.36 12 1 12 C-0.47075246 7.58774263 -1.36884358 4.51718381 0 0 Z " fill="#55276B" transform="translate(847,490)"/>
<path d="M0 0 C0.33 0.99 0.66 1.98 1 3 C0.34 3 -0.32 3 -1 3 C-1.33 3.99 -1.66 4.98 -2 6 C-4.0625 7.1875 -4.0625 7.1875 -6 8 C-4.68 8.66 -3.36 9.32 -2 10 C-2 10.66 -2 11.32 -2 12 C-1.01 12 -0.02 12 1 12 C3.09230769 16.43076923 3.09230769 16.43076923 2.625 19.3125 C2.315625 20.1478125 2.315625 20.1478125 2 21 C1.835 20.278125 1.67 19.55625 1.5 18.8125 C-0.42515559 15.20283326 -2.713294 14.06151671 -6.22265625 12.11328125 C-8 11 -8 11 -9 9 C-9.99 8.34 -10.98 7.68 -12 7 C-10.35 6.67 -8.7 6.34 -7 6 C-6.95875 5.38125 -6.9175 4.7625 -6.875 4.125 C-6.58625 3.42375 -6.2975 2.7225 -6 2 C-2.9375 0.75 -2.9375 0.75 0 0 Z " fill="#381E5E" transform="translate(368,315)"/>
<path d="M0 0 C-0.99 0.33 -1.98 0.66 -3 1 C-3.33 1.66 -3.66 2.32 -4 3 C-9.30718691 4.84126893 -14.60538994 5.31138464 -20.1875 5.6875 C-20.87658447 5.73592041 -21.56566895 5.78434082 -22.27563477 5.83422852 C-26.02851532 6.04814679 -29.35493944 5.94134574 -33 5 C-33 4.01 -33 3.02 -33 2 C-31.99582031 2.03480469 -30.99164063 2.06960937 -29.95703125 2.10546875 C-21.78113867 2.29731095 -14.61494394 1.82660201 -6.671875 -0.44140625 C-3.97661368 -1.00488924 -2.55786855 -0.91961465 0 0 Z " fill="#442372" transform="translate(323,248)"/>
<path d="M0 0 C0.99 0.99 1.98 1.98 3 3 C2.34 4.32 1.68 5.64 1 7 C1.66 7 2.32 7 3 7 C2.85957123 8.64630328 2.71250671 10.29204179 2.5625 11.9375 C2.48128906 12.85402344 2.40007812 13.77054688 2.31640625 14.71484375 C2 17 2 17 1 18 C0.37365331 21.27134085 -0.19209365 24.54537454 -0.71875 27.83398438 C-1.50013685 32.33527138 -2.58929776 36.0395606 -5 40 C-5.99 40.66 -6.98 41.32 -8 42 C-7.5875 40.845 -7.175 39.69 -6.75 38.5 C-2.51674161 25.59864111 -0.33572742 13.56338778 0 0 Z " fill="#3F1F64" transform="translate(369,173)"/>
<path d="M0 0 C1.76462683 3.08809695 2 4.23312136 2 8 C2.66 8 3.32 8 4 8 C4 8.66 4 9.32 4 10 C4.639375 10.28875 5.27875 10.5775 5.9375 10.875 C8 12 8 12 9 14 C11.52733235 14.65555119 11.52733235 14.65555119 14 15 C14 15.66 14 16.32 14 17 C9.545 18.485 9.545 18.485 5 20 C5.33 18.68 5.66 17.36 6 16 C4.77190909 14.35444301 4.77190909 14.35444301 3 13 C2.484375 12.46375 1.96875 11.9275 1.4375 11.375 C0.027224 9.89066489 0.027224 9.89066489 -2 9 C-1.67 8.67 -1.34 8.34 -1 8 C-0.76924918 6.65252916 -0.58846937 5.29622435 -0.4375 3.9375 C-0.293125 2.638125 -0.14875 1.33875 0 0 Z M1 20 C2.32 20.33 3.64 20.66 5 21 C3.68 21.99 2.36 22.98 1 24 C1 22.68 1 21.36 1 20 Z " fill="#5F2E8B" transform="translate(414,462)"/>
<path d="M0 0 C0.33 0 0.66 0 1 0 C1 1.98 1 3.96 1 6 C-0.32 6 -1.64 6 -3 6 C-3.33 7.32 -3.66 8.64 -4 10 C-4.66 10 -5.32 10 -6 10 C-6 10.66 -6 11.32 -6 12 C-5.01 12 -4.02 12 -3 12 C-0.8125 13.875 -0.8125 13.875 1 16 C1 16.66 1 17.32 1 18 C-4.75 16.125 -4.75 16.125 -7 15 C-7 14.01 -7 13.02 -7 12 C-9.31 12 -11.62 12 -14 12 C-13.67 11.34 -13.34 10.68 -13 10 C-12.195625 9.87625 -11.39125 9.7525 -10.5625 9.625 C-7.84016601 9.27432836 -7.84016601 9.27432836 -6.6875 6.9375 C-6.460625 6.298125 -6.23375 5.65875 -6 5 C-5.34 5 -4.68 5 -4 5 C-4 4.34 -4 3.68 -4 3 C-3.01 2.67 -2.02 2.34 -1 2 C-0.67 1.34 -0.34 0.68 0 0 Z " fill="#4C1C60" transform="translate(845,495)"/>
<path d="M0 0 C1.65 0 3.3 0 5 0 C6.1875 2.75 6.1875 2.75 7 6 C5.625 8.375 5.625 8.375 4 10 C2.68 9.67 1.36 9.34 0 9 C0 8.01 0 7.02 0 6 C-0.99 6.33 -1.98 6.66 -3 7 C-3.625 5.125 -3.625 5.125 -4 3 C-3.34 2.34 -2.68 1.68 -2 1 C-1.34 1.33 -0.68 1.66 0 2 C0 1.34 0 0.68 0 0 Z " fill="#271954" transform="translate(813,274)"/>
<path d="M0 0 C1 3 1 3 0.0390625 5.12109375 C-0.42757812 5.88550781 -0.89421875 6.64992188 -1.375 7.4375 C-3.11877397 10.31618832 -4.298455 12.71023072 -5 16 C-5.6469365 17.6744239 -6.30959426 19.34302621 -7 21 C-7.66 21 -8.32 21 -9 21 C-9.04898438 21.60328125 -9.09796875 22.2065625 -9.1484375 22.828125 C-9.22320313 23.62734375 -9.29796875 24.4265625 -9.375 25.25 C-9.44460938 26.03890625 -9.51421875 26.8278125 -9.5859375 27.640625 C-10.01507113 30.085877 -10.78600638 31.84836903 -12 34 C-11.84103894 24.91031765 -10.34851262 18.00703984 -6 10 C-5.34 10 -4.68 10 -4 10 C-3.87882813 9.36191406 -3.75765625 8.72382812 -3.6328125 8.06640625 C-3.38144531 6.82697266 -3.38144531 6.82697266 -3.125 5.5625 C-2.96257813 4.73878906 -2.80015625 3.91507812 -2.6328125 3.06640625 C-2.42398438 2.38449219 -2.21515625 1.70257813 -2 1 C-1.34 0.67 -0.68 0.34 0 0 Z " fill="#361C60" transform="translate(988,119)"/>
<path d="M0 0 C0.99 0 1.98 0 3 0 C1.49701757 3.7532578 -0.65045084 5.60207495 -3.8125 8.0625 C-4.66457031 8.73410156 -5.51664063 9.40570313 -6.39453125 10.09765625 C-8.85715016 11.89570034 -11.35963858 13.47835545 -14 15 C-14 13.35 -14 11.7 -14 10 C-12.9275 9.4225 -11.855 8.845 -10.75 8.25 C-8.3285556 6.88305558 -6.74712955 5.74712955 -4.75 3.75 C-3.88375 2.88375 -3.88375 2.88375 -3 2 C-2.01 2 -1.02 2 0 2 C0 1.34 0 0.68 0 0 Z " fill="#120B25" transform="translate(1300,99)"/>
<path d="M0 0 C2.64 0 5.28 0 8 0 C6.92249149 3.23252553 6.15758043 3.99848732 3.625 6.125 C3.01914063 6.64320312 2.41328125 7.16140625 1.7890625 7.6953125 C0 9 0 9 -3 10 C-4.20882096 12.00016466 -4.20882096 12.00016466 -5 14 C-5.49304175 6.60437376 -5.49304175 6.60437376 -3.0625 3.625 C-2.0415625 2.820625 -2.0415625 2.820625 -1 2 C-0.67 1.34 -0.34 0.68 0 0 Z " fill="#251740" transform="translate(1290,99)"/>
<path d="M0 0 C1.98 0 3.96 0 6 0 C6.66 1.98 7.32 3.96 8 6 C6 8 6 8 2.375 8.125 C1.26125 8.08375 0.1475 8.0425 -1 8 C-1.93065133 5.39417629 -2.14917407 4.35801776 -1.0625 1.75 C-0.711875 1.1725 -0.36125 0.595 0 0 Z " fill="#201347" transform="translate(448,610)"/>
<path d="M0 0 C1.32 0.66 2.64 1.32 4 2 C4.25 4.3125 4.25 4.3125 4 7 C2.1875 8.875 2.1875 8.875 0 10 C-3 9 -3 9 -4.1875 6.9375 C-4.455625 6.298125 -4.72375 5.65875 -5 5 C-3.35 3.35 -1.7 1.7 0 0 Z " fill="#6646A4" transform="translate(1097,331)"/>
<path d="M0 0 C2.33294775 -0.04241723 4.66702567 -0.04092937 7 0 C8 1 8 1 8.0625 3.5625 C8.041875 4.366875 8.02125 5.17125 8 6 C6.1875 7.0625 6.1875 7.0625 4 8 C1 7 1 7 -1 4 C-0.625 1.8125 -0.625 1.8125 0 0 Z " fill="#29174D" transform="translate(251,277)"/>
<path d="M0 0 C2.31 0.66 4.62 1.32 7 2 C7.33 3.65 7.66 5.3 8 7 C6.02 7.99 6.02 7.99 4 9 C4 8.34 4 7.68 4 7 C1.03 6.505 1.03 6.505 -2 6 C-1.125 1.125 -1.125 1.125 0 0 Z " fill="#483178" transform="translate(308,399)"/>
<path d="M0 0 C0.66 0.33 1.32 0.66 2 1 C-2.14837778 4.7572156 -6.10036868 8.25142633 -11 11 C-13.31116776 12.62151202 -15.61931656 14.24592655 -17.9140625 15.890625 C-18.60242188 16.25671875 -19.29078125 16.6228125 -20 17 C-20.99 16.67 -21.98 16.34 -23 16 C-22.3709375 15.56429688 -21.741875 15.12859375 -21.09375 14.6796875 C-16.18503743 11.26428809 -11.3628194 7.80158628 -6.69140625 4.06640625 C-5 3 -5 3 -2 3 C-2 2.34 -2 1.68 -2 1 C-1.34 0.67 -0.68 0.34 0 0 Z " fill="#2B1C62" transform="translate(903,262)"/>
<path d="M0 0 C-1 2 -1 2 -3.5625 2.875 C-5.2640625 3.431875 -5.2640625 3.431875 -7 4 C-12.40624953 6.38886548 -12.40624953 6.38886548 -17 10 C-17.99 9.67 -18.98 9.34 -20 9 C-19.34 8.01 -18.68 7.02 -18 6 C-17.34 6 -16.68 6 -16 6 C-15.67 5.34 -15.34 4.68 -15 4 C-9.67620164 0.30593583 -6.43945853 -0.45189183 0 0 Z " fill="#673B92" transform="translate(1109,487)"/>
<path d="M0 0 C0 4.19519365 -2.33053825 5.97686053 -5.0625 8.875 C-5.81043823 9.6808252 -5.81043823 9.6808252 -6.57348633 10.50292969 C-10.08934007 14.21912183 -13.64131401 17.28792872 -18 20 C-18.66 19.67 -19.32 19.34 -20 19 C-18.88121617 17.82737096 -17.75476949 16.66204862 -16.625 15.5 C-15.99851562 14.8503125 -15.37203125 14.200625 -14.7265625 13.53125 C-13 12 -13 12 -11 12 C-11 11.34 -11 10.68 -11 10 C-10.360625 9.71125 -9.72125 9.4225 -9.0625 9.125 C-6.84793921 8.17176549 -6.84793921 8.17176549 -6 6 C-5.34 6 -4.68 6 -4 6 C-3.896875 5.38125 -3.79375 4.7625 -3.6875 4.125 C-3 2 -3 2 0 0 Z " fill="#A573DB" transform="translate(355,221)"/>
<path d="M0 0 C2.4375 0.6875 2.4375 0.6875 5 2 C5.8125 4.625 5.8125 4.625 6 7 C4.02 7.66 2.04 8.32 0 9 C-1.5 7.625 -1.5 7.625 -3 6 C-3 5.34 -3 4.68 -3 4 C-2.01 4 -1.02 4 0 4 C0 2.68 0 1.36 0 0 Z " fill="#392C47" transform="translate(149,73)"/>
<path d="M0 0 C0.66 1.32 1.32 2.64 2 4 C0.8125 5.5625 0.8125 5.5625 -1 7 C-4.01071639 6.84946418 -5.52068815 6.41319987 -7.8125 4.4375 C-8.204375 3.963125 -8.59625 3.48875 -9 3 C-8.34 3 -7.68 3 -7 3 C-7 2.34 -7 1.68 -7 1 C-4.53721199 -0.231394 -2.7204945 -0.07159196 0 0 Z " fill="#EEE1F9" transform="translate(373,319)"/>
<path d="M0 0 C0.66 0 1.32 0 2 0 C1.69296238 3.58210556 1.19137742 4.8135297 -1.4375 7.375 C-4.59489413 10.60940374 -5.06363932 12.65869137 -6 17 C-8 15 -8 15 -8.125 11.875 C-8.08375 10.92625 -8.0425 9.9775 -8 9 C-7.34 8.67 -6.68 8.34 -6 8 C-5.67 7.01 -5.34 6.02 -5 5 C-3.5625 3.3125 -3.5625 3.3125 -2 2 C-1.34 2 -0.68 2 0 2 C0 1.34 0 0.68 0 0 Z " fill="#250F46" transform="translate(377,324)"/>
<path d="M0 0 C1.65 1.32 3.3 2.64 5 4 C4.34 5.65 3.68 7.3 3 9 C1.68 9 0.36 9 -1 9 C-1.66 8.34 -2.32 7.68 -3 7 C-2.61121812 3.98694043 -1.73543126 2.60314689 0 0 Z " fill="#EBDEF4" transform="translate(1285,95)"/>
<path d="M0 0 C0.66 0.33 1.32 0.66 2 1 C1.84660156 2.010625 1.69320313 3.02125 1.53515625 4.0625 C0.70826593 10.67762258 0.63636938 17.34276591 0.4375 24 C0.39421865 25.36068789 0.35060161 26.72136515 0.30664062 28.08203125 C0.20113317 31.38793157 0.09901744 34.69389999 0 38 C-0.33 38 -0.66 38 -1 38 C-1.02475064 33.23112363 -1.04288403 28.46228479 -1.05493164 23.69335938 C-1.05995505 22.07160796 -1.06677494 20.44986105 -1.07543945 18.828125 C-1.08759229 16.49478031 -1.09324828 14.1614956 -1.09765625 11.828125 C-1.10281754 11.10506165 -1.10797882 10.38199829 -1.11329651 9.63702393 C-1.11366918 6.2798725 -1.04907619 3.20893892 0 0 Z " fill="#9057C3" transform="translate(1031,581)"/>
<path d="M0 0 C0 0.33 0 0.66 0 1 C-3.63 1.33 -7.26 1.66 -11 2 C-11 1.34 -11 0.68 -11 0 C-11.98097656 0.32742188 -12.96195312 0.65484375 -13.97265625 0.9921875 C-18.16980492 2.19137284 -22.10064102 2.22816407 -26.4375 2.125 C-27.16904297 2.11597656 -27.90058594 2.10695313 -28.65429688 2.09765625 C-30.43634298 2.07436153 -32.21821759 2.0385019 -34 2 C-24.21206428 -3.2687794 -10.64059966 -1.44279317 0 0 Z " fill="#7B44AE" transform="translate(323,460)"/>
<path d="M0 0 C0.33 0.99 0.66 1.98 1 3 C2.11375 3.0928125 2.11375 3.0928125 3.25 3.1875 C6.85122777 4.25149912 7.96756296 5.91370672 10 9 C10 9.66 10 10.32 10 11 C8.02 11 6.04 11 4 11 C4 9.35 4 7.7 4 6 C2.68 6 1.36 6 0 6 C0 4.02 0 2.04 0 0 Z " fill="#221241" transform="translate(1286,88)"/>
<path d="M0 0 C1.32 0 2.64 0 4 0 C2.64004663 3.1618916 1.22140627 4.85608546 -1.5 6.9375 C-4.45424977 9.35126332 -5.99816527 11.215291 -7 15 C-7.33 15 -7.66 15 -8 15 C-8.3125 12.3125 -8.3125 12.3125 -8 9 C-5.625 6.125 -5.625 6.125 -3 4 C-2.34 4 -1.68 4 -1 4 C-0.67 2.68 -0.34 1.36 0 0 Z " fill="#4F3188" transform="translate(1166,381)"/>
<path d="M0 0 C3.27034459 -0.36337162 4.60883753 -0.28544288 7.3125 1.6875 C9.28544288 4.39116247 9.36337162 5.72965541 9 9 C8.34 9 7.68 9 7 9 C7 8.34 7 7.68 7 7 C5.02 6.34 3.04 5.68 1 5 C0.67 3.35 0.34 1.7 0 0 Z " fill="#20103E" transform="translate(1276,101)"/>
<path d="M0 0 C1.32 0.66 2.64 1.32 4 2 C4 3.32 4 4.64 4 6 C3.34 6.66 2.68 7.32 2 8 C-0.125 7.625 -0.125 7.625 -2 7 C-2.6875 5.1875 -2.6875 5.1875 -3 3 C-1.5625 1.25 -1.5625 1.25 0 0 Z " fill="#F0E1FA" transform="translate(846,502)"/>
<path d="M0 0 C1 1 1 1 1.0625 4.0625 C1.041875 5.031875 1.02125 6.00125 1 7 C-0.98 7.99 -0.98 7.99 -3 9 C-3 8.01 -3 7.02 -3 6 C-2.34 6 -1.68 6 -1 6 C-1 4.35 -1 2.7 -1 1 C-2.65 1 -4.3 1 -6 1 C-6 1.763125 -6 2.52625 -6 3.3125 C-6 5.20833333 -6 7.10416667 -6 9 C-9.05059524 4.60714286 -9.05059524 4.60714286 -8.8125 1.75 C-6.95716065 -2.24611553 -3.63890945 -0.77423605 0 0 Z " fill="#100B18" transform="translate(119,104)"/>
<path d="M0 0 C0.33 0 0.66 0 1 0 C5.22323462 16.70842825 5.22323462 16.70842825 7 25 C4.59078295 22.59078295 3.46187844 20.05665491 2 17 C1.67 17 1.34 17 1 17 C0.67 11.39 0.34 5.78 0 0 Z " fill="#8E5FCA" transform="translate(977,196)"/>
<path d="M0 0 C0.99 0.495 0.99 0.495 2 1 C2 1.66 2 2.32 2 3 C2.556875 3.20625 3.11375 3.4125 3.6875 3.625 C8.03037563 6.20725037 11.04383363 10.37633404 13 15 C8.78451534 13.43870938 6.77312983 10.41308287 4 7 C3.01 6.34 2.02 5.68 1 5 C0.3125 2.375 0.3125 2.375 0 0 Z " fill="#472A6A" transform="translate(748,22)"/>
<path d="M0 0 C2.64 0 5.28 0 8 0 C8.33 0.66 8.66 1.32 9 2 C8.0625 4.125 8.0625 4.125 7 6 C5.35 6 3.7 6 2 6 C1.34 4.02 0.68 2.04 0 0 Z " fill="#4C294B" transform="translate(934,576)"/>
<path d="M0 0 C0.66 0 1.32 0 2 0 C2.433125 0.61875 2.86625 1.2375 3.3125 1.875 C5.31219438 4.39313367 6.98404073 5.02185105 10 6 C10 6.66 10 7.32 10 8 C7.36 8.33 4.72 8.66 2 9 C1.34 6.03 0.68 3.06 0 0 Z " fill="#471E5F" transform="translate(851,499)"/>
<path d="M0 0 C0.66 0.33 1.32 0.66 2 1 C-2.75 4 -2.75 4 -5 4 C-5 4.66 -5 5.32 -5 6 C-10.94 6.495 -10.94 6.495 -17 7 C-13.71523136 3.71523136 -12.33881373 3.34831604 -7.9375 2.375 C-3.85185308 1.51454861 -3.85185308 1.51454861 0 0 Z " fill="#331D4F" transform="translate(808,38)"/>
<path d="M0 0 C1.32 0 2.64 0 4 0 C4.6875 2.3125 4.6875 2.3125 5 5 C3.5625 6.8125 3.5625 6.8125 2 8 C1.01 7.67 0.02 7.34 -1 7 C-1.04254356 5.00045254 -1.04080783 2.99958364 -1 1 C-0.67 0.67 -0.34 0.34 0 0 Z " fill="#352A59" transform="translate(487,588)"/>
<path d="M0 0 C-0.99 0.495 -0.99 0.495 -2 1 C-2.1546875 2.2065625 -2.1546875 2.2065625 -2.3125 3.4375 C-2.539375 4.283125 -2.76625 5.12875 -3 6 C-5.5625 7.3125 -5.5625 7.3125 -8 8 C-8.33 7.34 -8.66 6.68 -9 6 C-7.68 5.67 -6.36 5.34 -5 5 C-5 3.68 -5 2.36 -5 1 C-7.76276177 1.52268466 -10.3260876 2.10869587 -13 3 C-12.1875 1.0625 -12.1875 1.0625 -11 -1 C-6.74938644 -2.41687119 -4.28148375 -1.19320039 0 0 Z " fill="#0A0617" transform="translate(1309,67)"/>
<path d="M0 0 C0.33 0 0.66 0 1 0 C1 7.92 1 15.84 1 24 C0.67 24 0.34 24 0 24 C-0.06058594 23.26394531 -0.12117188 22.52789063 -0.18359375 21.76953125 C-0.26738281 20.79371094 -0.35117188 19.81789063 -0.4375 18.8125 C-0.51871094 17.84957031 -0.59992188 16.88664063 -0.68359375 15.89453125 C-0.93989918 13.03221154 -0.93989918 13.03221154 -1.59375 10.40625 C-2.2384059 6.58790353 -1.0629288 3.68898817 0 0 Z " fill="#612B81" transform="translate(1029,593)"/>
<path d="M0 0 C0.66 0.33 1.32 0.66 2 1 C2 3.31 2 5.62 2 8 C1.01 8.33 0.02 8.66 -1 9 C-3 8 -3 8 -3.875 6.1875 C-4 4 -4 4 -2.0625 1.75 C-1.381875 1.1725 -0.70125 0.595 0 0 Z " fill="#663784" transform="translate(826,442)"/>
<path d="M0 0 C1.37444447 3.70578066 0.58339615 5.7843281 -0.875 9.375 C-2.39962696 13.28577257 -3.36071128 16.84462331 -4 21 C-4.66 21.66 -5.32 22.32 -6 23 C-5.57200914 14.72550999 -2.95555804 7.66700112 0 0 Z " fill="#9D62CD" transform="translate(1039,554)"/>
<path d="M0 0 C3 1 3 1 5 4 C6.98 3.67 8.96 3.34 11 3 C10.67 4.32 10.34 5.64 10 7 C9.34 7 8.68 7 8 7 C7.67 8.32 7.34 9.64 7 11 C6.67 9.35 6.34 7.7 6 6 C5.01 6 4.02 6 3 6 C2.67 5.34 2.34 4.68 2 4 C0.35636866 3.27840576 -1.31050386 2.60648579 -3 2 C-2.01 1.34 -1.02 0.68 0 0 Z " fill="#7758A0" transform="translate(363,321)"/>
<path d="M0 0 C1.32 0 2.64 0 4 0 C5.125 4.75 5.125 4.75 4 7 C2.35 6.67 0.7 6.34 -1 6 C-1.042721 4.33388095 -1.04063832 2.66617115 -1 1 C-0.67 0.67 -0.34 0.34 0 0 Z " fill="#7658B5" transform="translate(971,277)"/>
<path d="M0 0 C3 1 3 1 5 4 C5 4.99 5 5.98 5 7 C5.99 7.33 6.98 7.66 8 8 C8.33 8.99 8.66 9.98 9 11 C10.29355827 12.37195574 11.62298702 13.71182656 13 15 C12.67 15.66 12.34 16.32 12 17 C0 4.15533981 0 4.15533981 0 0 Z " fill="#925BD3" transform="translate(993,240)"/>
<path d="M0 0 C0.99 0.99 1.98 1.98 3 3 C2.34 4.32 1.68 5.64 1 7 C1.66 7 2.32 7 3 7 C2.8864371 8.64666203 2.75882619 10.29236082 2.625 11.9375 C2.52058594 13.31228516 2.52058594 13.31228516 2.4140625 14.71484375 C2.27742188 15.46894531 2.14078125 16.22304687 2 17 C1.34 17.33 0.68 17.66 0 18 C0 12.06 0 6.12 0 0 Z " fill="#341856" transform="translate(369,173)"/>
<path d="M0 0 C1.65 0 3.3 0 5 0 C5 1.65 5 3.3 5 5 C4.34 5 3.68 5 3 5 C3 5.99 3 6.98 3 8 C2.34 8 1.68 8 1 8 C-1 5 -1 5 -0.625 2.3125 C-0.41875 1.549375 -0.2125 0.78625 0 0 Z " fill="#584E5F" transform="translate(113,105)"/>
<path d="M0 0 C-1.1446875 0.8971875 -1.1446875 0.8971875 -2.3125 1.8125 C-4.90488835 3.81819112 -4.90488835 3.81819112 -6.5625 5.6875 C-8.30121778 7.27502493 -9.70726494 7.60470085 -12 8 C-12 7.01 -12 6.02 -12 5 C-4.37623762 -2.18811881 -4.37623762 -2.18811881 0 0 Z " fill="#302068" transform="translate(920,253)"/>
<path d="M0 0 C0.33 0.66 0.66 1.32 1 2 C1.99 2 2.98 2 4 2 C4.06058594 2.59167969 4.12117187 3.18335938 4.18359375 3.79296875 C4.62012371 7.90978208 5.08671346 11.95544533 6 16 C1.25829281 11.41634972 0.83250147 6.25471501 0 0 Z " fill="#53327B" transform="translate(742,6)"/>
<path d="M0 0 C0.33 0.66 0.66 1.32 1 2 C-0.45398729 3.81598825 -1.91332325 5.62769519 -3.375 7.4375 C-4.59316406 8.95150391 -4.59316406 8.95150391 -5.8359375 10.49609375 C-8 13 -8 13 -10 14 C-9.75 11.125 -9.75 11.125 -9 8 C-7.25 7 -7.25 7 -5 6 C-3.18732225 4.0946285 -1.62402884 2.07514796 0 0 Z " fill="#975EC6" transform="translate(1061,520)"/>
<path d="M0 0 C2.64 0 5.28 0 8 0 C8 0.66 8 1.32 8 2 C3.545 3.485 3.545 3.485 -1 5 C-0.67 3.35 -0.34 1.7 0 0 Z M-5 5 C-3.68 5.33 -2.36 5.66 -1 6 C-2.32 6.99 -3.64 7.98 -5 9 C-5 7.68 -5 6.36 -5 5 Z " fill="#6C3690" transform="translate(420,477)"/>
<path d="M0 0 C1.5625 1.25 1.5625 1.25 3 3 C2.72963853 5.97397616 2.14553974 6.85446026 0 9 C-1.32 8.01 -2.64 7.02 -4 6 C-3.34 4.68 -2.68 3.36 -2 2 C-1.34 2 -0.68 2 0 2 C0 1.34 0 0.68 0 0 Z " fill="#ECD4F5" transform="translate(414,473)"/>
<path d="M0 0 C1.32 1.32 2.64 2.64 4 4 C3.34 5.32 2.68 6.64 2 8 C1.01 8 0.02 8 -1 8 C-1.66 6.68 -2.32 5.36 -3 4 C-2.34 4 -1.68 4 -1 4 C-0.67 2.68 -0.34 1.36 0 0 Z " fill="#ECD8F9" transform="translate(1158,377)"/>
<path d="M0 0 C1.72206188 2.99126319 2.24179923 5.10685713 2.1953125 8.546875 C2.18886719 9.39121094 2.18242187 10.23554688 2.17578125 11.10546875 C2.15902344 11.97816406 2.14226562 12.85085937 2.125 13.75 C2.11597656 14.63816406 2.10695313 15.52632812 2.09765625 16.44140625 C2.07414577 18.62788058 2.04128499 20.81380094 2 23 C1.67 23 1.34 23 1 23 C0.93941406 22.11957031 0.87882812 21.23914063 0.81640625 20.33203125 C0.73261719 19.17058594 0.64882813 18.00914062 0.5625 16.8125 C0.48128906 15.66394531 0.40007812 14.51539063 0.31640625 13.33203125 C0.06756332 10.08079288 0.06756332 10.08079288 -0.5625 7.25 C-1.08281322 4.57410343 -0.6734045 2.61879527 0 0 Z " fill="#7149A3" transform="translate(367,167)"/>
<path d="M0 0 C1.65 0 3.3 0 5 0 C5 1.98 5 3.96 5 6 C3.35 6 1.7 6 0 6 C0 4.02 0 2.04 0 0 Z " fill="#46366D" transform="translate(448,612)"/>
<path d="M0 0 C1.32 0.33 2.64 0.66 4 1 C-5.77272727 7.59090909 -5.77272727 7.59090909 -10 9 C-10 8.34 -10 7.68 -10 7 C-9.34 7 -8.68 7 -8 7 C-8 6.34 -8 5.68 -8 5 C-5 3 -5 3 -1 3 C-0.67 2.01 -0.34 1.02 0 0 Z " fill="#68358F" transform="translate(1085,497)"/>
<path d="M0 0 C0.99 0.33 1.98 0.66 3 1 C3 1.66 3 2.32 3 3 C3.99 3 4.98 3 6 3 C8.09230769 7.43076923 8.09230769 7.43076923 7.625 10.3125 C7.41875 10.869375 7.2125 11.42625 7 12 C6.773125 11.236875 6.54625 10.47375 6.3125 9.6875 C5.20491069 6.79746748 5.20491069 6.79746748 2.375 5.4375 C1.59125 4.963125 0.8075 4.48875 0 4 C0 2.68 0 1.36 0 0 Z " fill="#3E2266" transform="translate(363,324)"/>
<path d="M0 0 C1.32 0 2.64 0 4 0 C4 1.32 4 2.64 4 4 C4.99 4.33 5.98 4.66 7 5 C5.37660195 6.70884005 3.70680947 8.37446717 2 10 C1.34 10 0.68 10 0 10 C0.165 9.4225 0.33 8.845 0.5 8.25 C1.1733744 5.2198152 1.41270365 2.82540729 0 0 Z " fill="#724C98" transform="translate(848,502)"/>
<path d="M0 0 C1.98 0.66 3.96 1.32 6 2 C6.36923077 7.53846154 6.36923077 7.53846154 4.5 9.875 C3.7575 10.431875 3.7575 10.431875 3 11 C2.01 10.67 1.02 10.34 0 10 C0.99 9.34 1.98 8.68 3 8 C3.25030977 5.41619823 3.25030977 5.41619823 3 3 C1.35 2.67 -0.3 2.34 -2 2 C-1.34 1.34 -0.68 0.68 0 0 Z " fill="#221148" transform="translate(255,275)"/>
<path d="M0 0 C-0.99 0.33 -1.98 0.66 -3 1 C-3.33 1.66 -3.66 2.32 -4 3 C-8.29 3 -12.58 3 -17 3 C-17 2.67 -17 2.34 -17 2 C-14.91952703 1.4678559 -12.83547707 0.94968214 -10.75 0.4375 C-9.58984375 0.14746094 -8.4296875 -0.14257812 -7.234375 -0.44140625 C-4.27909017 -0.95179964 -2.75565899 -1.02996165 0 0 Z " fill="#6E45A2" transform="translate(323,248)"/>
<path d="M0 0 C1 3 1 3 -0.14453125 5.8828125 C-0.69496094 6.95273438 -1.24539063 8.02265625 -1.8125 9.125 C-2.35519531 10.20007813 -2.89789063 11.27515625 -3.45703125 12.3828125 C-5 15 -5 15 -7 16 C-6.50696602 11.93246965 -5.05760185 9.09479691 -2.98828125 5.6484375 C-1.88769613 3.81267893 -0.92597714 1.92911905 0 0 Z " fill="#A574DA" transform="translate(363,205)"/>
<path d="M0 0 C0.66 0.66 1.32 1.32 2 2 C1.45730469 2.47050781 0.91460938 2.94101563 0.35546875 3.42578125 C-0.35996094 4.04839844 -1.07539062 4.67101562 -1.8125 5.3125 C-2.52019531 5.92738281 -3.22789062 6.54226562 -3.95703125 7.17578125 C-5.70136739 8.73334335 -7.36778041 10.32658875 -9 12 C-8.8125 9.1875 -8.8125 9.1875 -8 6 C-5.625 4.3125 -5.625 4.3125 -3 3 C-1.24850835 1.41754725 -1.24850835 1.41754725 0 0 Z " fill="#37215B" transform="translate(1007,93)"/>
<path d="M0 0 C0.66 0 1.32 0 2 0 C2 0.66 2 1.32 2 2 C2.639375 2.28875 3.27875 2.5775 3.9375 2.875 C6 4 6 4 7 6 C7.99 6.66 8.98 7.32 10 8 C8.35 8.33 6.7 8.66 5 9 C4.67 7.68 4.34 6.36 4 5 C2.02 5 0.04 5 -2 5 C-2 4.34 -2 3.68 -2 3 C-1.34 3 -0.68 3 0 3 C0 2.01 0 1.02 0 0 Z " fill="#9172B6" transform="translate(369,315)"/>
<path d="M0 0 C2 3 2 3 1.79296875 5.0859375 C1.59316406 5.84132812 1.39335938 6.59671875 1.1875 7.375 C0.98769531 8.16519531 0.78789063 8.95539063 0.58203125 9.76953125 C0.38996094 10.50558594 0.19789063 11.24164063 0 12 C-0.33986667 13.66534667 -0.67702486 15.33129513 -1 17 C-1.66 17 -2.32 17 -3 17 C-2.36934845 11.2190275 -1.34844868 5.6556294 0 0 Z " fill="#6B42A1" transform="translate(979,140)"/>
<path d="M0 0 C1.5625 1.25 1.5625 1.25 3 3 C2.6875 5.1875 2.6875 5.1875 2 7 C0.35 7 -1.3 7 -3 7 C-2.38722388 4.03824877 -1.74627478 2.61941217 0 0 Z " fill="#55436D" transform="translate(585,123)"/>
<path d="M0 0 C1.65 0.33 3.3 0.66 5 1 C5 2.32 5 3.64 5 5 C2.03 4.505 2.03 4.505 -1 4 C-0.67 2.68 -0.34 1.36 0 0 Z " fill="#6C538E" transform="translate(493,524)"/>
<path d="M0 0 C4 0 4 0 6.25 1.875 C8 4 8 4 8 6 C2.25 4.125 2.25 4.125 0 3 C0 2.01 0 1.02 0 0 Z " fill="#4D226A" transform="translate(838,507)"/>
<path d="M0 0 C1.65 0 3.3 0 5 0 C5 1.65 5 3.3 5 5 C3.35 4.67 1.7 4.34 0 4 C0 2.68 0 1.36 0 0 Z " fill="#624F82" transform="translate(254,278)"/>
<path d="M0 0 C-4.95 2.475 -4.95 2.475 -10 5 C-10.99 4.34 -11.98 3.68 -13 3 C-11.40084119 2.30093058 -9.79544955 1.61610532 -8.1875 0.9375 C-7.29417969 0.55464844 -6.40085937 0.17179688 -5.48046875 -0.22265625 C-3 -1 -3 -1 0 0 Z " fill="#351759" transform="translate(338,243)"/>
<path d="M0 0 C1.32 0 2.64 0 4 0 C4 1.98 4 3.96 4 6 C2.68 6 1.36 6 0 6 C0 4.02 0 2.04 0 0 Z " fill="#60546D" transform="translate(404,206)"/>
<path d="M0 0 C-1.28716647 1.00578589 -2.57988658 2.00446798 -3.875 3 C-4.95394531 3.8353125 -4.95394531 3.8353125 -6.0546875 4.6875 C-8 6 -8 6 -10 6 C-10 5.34 -10 4.68 -10 4 C-9.34 4 -8.68 4 -8 4 C-8 3.01 -8 2.02 -8 1 C-2.25 -1.125 -2.25 -1.125 0 0 Z " fill="#110C1B" transform="translate(159,80)"/>
<path d="M0 0 C2.475 0.495 2.475 0.495 5 1 C5 2.32 5 3.64 5 5 C3.35 5 1.7 5 0 5 C0 3.35 0 1.7 0 0 Z " fill="#58506A" transform="translate(1300,67)"/>
<path d="M0 0 C1.65 0 3.3 0 5 0 C4.67 1.65 4.34 3.3 4 5 C1.525 4.01 1.525 4.01 -1 3 C-0.67 2.01 -0.34 1.02 0 0 Z " fill="#7C6C9E" transform="translate(813,277)"/>
<path d="M0 0 C3.05936637 3.75467691 5 7.08113061 5 12 C4.01 11.67 3.02 11.34 2 11 C2 9.35 2 7.7 2 6 C1.34 6 0.68 6 0 6 C0 4.02 0 2.04 0 0 Z " fill="#8B5DCA" transform="translate(984,221)"/>
<path d="M0 0 C3.94463583 3.77312992 3.94463583 3.77312992 4.09765625 7.1640625 C4.08605469 7.97617188 4.07445312 8.78828125 4.0625 9.625 C4.05347656 10.44226563 4.04445313 11.25953125 4.03515625 12.1015625 C4.02355469 12.72804687 4.01195312 13.35453125 4 14 C2.30566082 10.9530371 1.50532888 8.17178534 0.875 4.75 C0.70742188 3.85796875 0.53984375 2.9659375 0.3671875 2.046875 C0.18542969 1.03367188 0.18542969 1.03367188 0 0 Z " fill="#4A2A72" transform="translate(363,153)"/>
<path d="M0 0 C1 3 1 3 0.00390625 5.26171875 C-0.47175781 6.06222656 -0.94742188 6.86273438 -1.4375 7.6875 C-1.91058594 8.49574219 -2.38367188 9.30398437 -2.87109375 10.13671875 C-3.24363281 10.75160156 -3.61617187 11.36648437 -4 12 C-5 10 -5 10 -4.51171875 7.87109375 C-4.23972656 7.06800781 -3.96773437 6.26492187 -3.6875 5.4375 C-3.42324219 4.63183594 -3.15898438 3.82617188 -2.88671875 2.99609375 C-2 1 -2 1 0 0 Z " fill="#482B73" transform="translate(988,119)"/>
<path d="M0 0 C0.66 0 1.32 0 2 0 C1.3125 3.375 1.3125 3.375 0 7 C-2.625 8.4375 -2.625 8.4375 -5 9 C-5 6 -5 6 -3.0625 3.9375 C-2.381875 3.298125 -1.70125 2.65875 -1 2 C-0.67 1.34 -0.34 0.68 0 0 Z " fill="#5E4784" transform="translate(1290,99)"/>
<path d="M0 0 C0.99 0 1.98 0 3 0 C1.70700306 2.88437779 0.34058637 4.87219421 -2 7 C-2.66 6.67 -3.32 6.34 -4 6 C-3.34 4.68 -2.68 3.36 -2 2 C-1.34 2 -0.68 2 0 2 C0 1.34 0 0.68 0 0 Z " fill="#0A0616" transform="translate(1300,99)"/>
<path d="M0 0 C1.32 0 2.64 0 4 0 C6.25 2.5 6.25 2.5 8 5 C6.02 5.33 4.04 5.66 2 6 C1.855625 5.38125 1.71125 4.7625 1.5625 4.125 C1.06847775 1.96741678 1.06847775 1.96741678 0 0 Z " fill="#7E53AF" transform="translate(1159,378)"/>
<path d="M0 0 C0.66 0.66 1.32 1.32 2 2 C-2.75 7.75 -2.75 7.75 -5 10 C-5 8.35 -5 6.7 -5 5 C-4.360625 4.731875 -3.72125 4.46375 -3.0625 4.1875 C-0.66868314 3.11332248 -0.66868314 3.11332248 0 0 Z " fill="#8D54B9" transform="translate(1050,534)"/>
<path d="M0 0 C0.66 0.33 1.32 0.66 2 1 C0.02 2.98 -1.96 4.96 -4 7 C-4.66 6.67 -5.32 6.34 -6 6 C-4 4 -2 2 0 0 Z " fill="#2A1552" transform="translate(513,511)"/>
<path d="M0 0 C3.875 1.875 3.875 1.875 5 3 C5.04080783 4.99958364 5.04254356 7.00045254 5 9 C0.57142857 3.85714286 0.57142857 3.85714286 0 0 Z " fill="#8D5AAD" transform="translate(410,479)"/>
<path d="M0 0 C-3.50538557 1.96301592 -7.13351728 2.95902388 -11 4 C-11.33 3.34 -11.66 2.68 -12 2 C-7.8794254 0.00214565 -4.54805635 -0.17835515 0 0 Z " fill="#723A9B" transform="translate(289,462)"/>
<path d="M0 0 C0.66 0.33 1.32 0.66 2 1 C-1.46741134 3.95749791 -4.86873527 6.07848152 -9 8 C-9 7.01 -9 6.02 -9 5 C-7.54735962 4.1361871 -6.0876837 3.28419546 -4.625 2.4375 C-3.40683594 1.72400391 -3.40683594 1.72400391 -2.1640625 0.99609375 C-1.44992187 0.66738281 -0.73578125 0.33867187 0 0 Z " fill="#3E2369" transform="translate(1157,277)"/>
<path d="M0 0 C0.33 0 0.66 0 1 0 C1 1.98 1 3.96 1 6 C2.32 6 3.64 6 5 6 C5 7.65 5 9.3 5 11 C2.5 9.4375 2.5 9.4375 0 7 C-0.3125 3.25 -0.3125 3.25 0 0 Z " fill="#4C3672" transform="translate(1285,88)"/>
<path d="M0 0 C1.98 0.495 1.98 0.495 4 1 C4 2.32 4 3.64 4 5 C2.35 4.67 0.7 4.34 -1 4 C-0.67 2.68 -0.34 1.36 0 0 Z " fill="#95869F" transform="translate(149,75)"/>
<path d="M0 0 C0.99 0.33 1.98 0.66 3 1 C0.69 3.31 -1.62 5.62 -4 8 C-4.33 7.01 -4.66 6.02 -5 5 C-4.01 4.67 -3.02 4.34 -2 4 C-0.79117904 1.99983534 -0.79117904 1.99983534 0 0 Z " fill="#5D287F" transform="translate(1064,514)"/>
<path d="M0 0 C1.65 0.33 3.3 0.66 5 1 C3.75 3 3.75 3 2 5 C0.68 5 -0.64 5 -2 5 C-1.34 3.35 -0.68 1.7 0 0 Z " fill="#9E6FBC" transform="translate(417,477)"/>
<path d="M0 0 C1.98 0 3.96 0 6 0 C6 0.66 6 1.32 6 2 C5.1028125 2.1546875 5.1028125 2.1546875 4.1875 2.3125 C1.71756736 3.08876455 0.67748765 4.07088921 -1 6 C-0.67 4.02 -0.34 2.04 0 0 Z " fill="#362556" transform="translate(1292,99)"/>
<path d="M0 0 C1.32 1.32 2.64 2.64 4 4 C3.67 4.66 3.34 5.32 3 6 C2.01 5.34 1.02 4.68 0 4 C-0.99 4.33 -1.98 4.66 -3 5 C-2.625 3.0625 -2.625 3.0625 -2 1 C-1.34 0.67 -0.68 0.34 0 0 Z " fill="#8857AA" transform="translate(414,471)"/>
<path d="M0 0 C1.65 0 3.3 0 5 0 C5.33 1.32 5.66 2.64 6 4 C4.35 3.67 2.7 3.34 1 3 C0.67 2.01 0.34 1.02 0 0 Z " fill="#614971" transform="translate(516,334)"/>
<path d="M0 0 C3.25543229 0.34879632 4.01873107 1.02133261 6.25 3.5625 C6.8275 4.366875 7.405 5.17125 8 6 C7.01 6 6.02 6 5 6 C5 5.34 5 4.68 5 4 C2.525 3.01 2.525 3.01 0 2 C0 1.34 0 0.68 0 0 Z " fill="#240E42" transform="translate(372,314)"/>
<path d="M0 0 C0.33 1.65 0.66 3.3 1 5 C-0.65 4.67 -2.3 4.34 -4 4 C-4 3.01 -4 2.02 -4 1 C-2 0 -2 0 0 0 Z " fill="#4C4669" transform="translate(866,159)"/>
<path d="M0 0 C2.475 0.495 2.475 0.495 5 1 C5 1.66 5 2.32 5 3 C5.66 3 6.32 3 7 3 C6.67 3.99 6.34 4.98 6 6 C6 5.34 6 4.68 6 4 C3.03 3.505 3.03 3.505 0 3 C0 2.01 0 1.02 0 0 Z " fill="#100A21" transform="translate(1278,107)"/>
<path d="M0 0 C1.98 0.495 1.98 0.495 4 1 C3.34 1.66 2.68 2.32 2 3 C2.35355436 5.26274788 2.97544426 6.95088852 4 9 C2.0625 8.1875 2.0625 8.1875 0 7 C-1.04449911 3.86650268 -0.93423645 3.01031744 0 0 Z " fill="#614A89" transform="translate(1281,96)"/>
<path d="M0 0 C2.475 0.495 2.475 0.495 5 1 C5.33 2.65 5.66 4.3 6 6 C3.00306862 5.00102287 1.97290587 4.34869747 0 2 C0 1.34 0 0.68 0 0 Z " fill="#120D1C" transform="translate(151,72)"/>
<path d="M0 0 C1.32 0 2.64 0 4 0 C4.33 0.99 4.66 1.98 5 3 C4.67 3.66 4.34 4.32 4 5 C3.01 5 2.02 5 1 5 C0.67 3.35 0.34 1.7 0 0 Z " fill="#3C2863" transform="translate(402,615)"/>
<path d="M0 0 C0.33 0.66 0.66 1.32 1 2 C0.0625 4.125 0.0625 4.125 -1 6 C-2.65 6 -4.3 6 -6 6 C-6 5.34 -6 4.68 -6 4 C-4.35 3.67 -2.7 3.34 -1 3 C-0.67 2.01 -0.34 1.02 0 0 Z " fill="#7A53AD" transform="translate(1158,375)"/>
<path d="M0 0 C0.99 0 1.98 0 3 0 C3 1.65 3 3.3 3 5 C2.01 5 1.02 5 0 5 C-0.5625 3.0625 -0.5625 3.0625 -1 1 C-0.67 0.67 -0.34 0.34 0 0 Z " fill="#AA94D0" transform="translate(1096,335)"/>
<path d="M0 0 C0.99 0 1.98 0 3 0 C3.33 1.65 3.66 3.3 4 5 C2.35 4.67 0.7 4.34 -1 4 C-0.67 2.68 -0.34 1.36 0 0 Z " fill="#6B5F76" transform="translate(529,185)"/>
<path d="M0 0 C0.99 0 1.98 0 3 0 C2.67 1.65 2.34 3.3 2 5 C1.01 4.67 0.02 4.34 -1 4 C-0.67 2.68 -0.34 1.36 0 0 Z " fill="#5A365C" transform="translate(917,605)"/>
<path d="M0 0 C0.66 0.66 1.32 1.32 2 2 C1.34 3.98 0.68 5.96 0 8 C-0.66 7.34 -1.32 6.68 -2 6 C-1.34 4.02 -0.68 2.04 0 0 Z " fill="#58308D" transform="translate(406,581)"/>
<path d="M0 0 C1.0326802 2.78823655 1.04509293 3.8677274 0.0625 6.75 C-0.288125 7.4925 -0.63875 8.235 -1 9 C-1.66 8.67 -2.32 8.34 -3 8 C-1.125 1.125 -1.125 1.125 0 0 Z " fill="#521B6D" transform="translate(1034,564)"/>
<path d="M0 0 C0.99 0.99 1.98 1.98 3 3 C2.67 3.99 2.34 4.98 2 6 C1.01 6 0.02 6 -1 6 C-1.042721 4.33388095 -1.04063832 2.66617115 -1 1 C-0.67 0.67 -0.34 0.34 0 0 Z " fill="#3F2868" transform="translate(586,431)"/>
<path d="M0 0 C0.99 0 1.98 0 3 0 C3.33 0.99 3.66 1.98 4 3 C2.02 3.99 2.02 3.99 0 5 C-0.5625 3.0625 -0.5625 3.0625 -1 1 C-0.67 0.67 -0.34 0.34 0 0 Z " fill="#4F3C86" transform="translate(893,357)"/>
<path d="M0 0 C3.00617269 3.00617269 2.59585316 5.82381598 3 10 C1 8 1 8 -1 5 C-0.625 2.3125 -0.625 2.3125 0 0 Z " fill="#0E061B" transform="translate(370,298)"/>
<path d="M0 0 C0.66 0.33 1.32 0.66 2 1 C-0.8125 3.0625 -0.8125 3.0625 -4 5 C-4.99 4.67 -5.98 4.34 -7 4 C-2.25 1.125 -2.25 1.125 0 0 Z " fill="#29195F" transform="translate(918,252)"/>
</svg>
